<svg xmlns="http://www.w3.org/2000/svg" viewBox="0 0 256 256">
  <path fill="#000000" d="M166.6 21.6c1.6 2.6.9 6.1-.1 13.1l-6 43.1c21.6 6.2 37 15.9 43.1 30 1.3 3 2.1 6.2 2.4 9.5.1.6-.6 1.1-1.2.8-17.8-9-36.2-14.6-56.2-17.5a274 274 0 0 0-70.5 0c-20 2.9-38.4 8.5-56.2 17.5-.6.3-1.3-.2-1.2-.8.3-3.3 1-6.5 2.4-9.5 6.1-14.1 21.5-23.8 43.1-30l-6-43.1c-.9-7-.7-10.5.9-13.1 1.5-2.3 4.6-3.5 9.4-4.5a205.2 205.2 0 0 1 89.6 0c4.8 1 7.9 2.2 9.4 4.5Z"></path>
  <path fill="#FF5D01" d="M178 170.1c-12.2 9.7-27.6 15.6-47.4 15.6s-35.2-5.9-47.4-15.6c-3.6-2.9-6.8 2.3-4.4 5.9 10.8 15.4 30.3 26 51.8 26s41-10.6 51.8-26c2.4-3.6-.8-8.8-4.4-5.9Z"></path>
</svg>
